<svg id="flat" height="512" viewBox="0 0 512 512" width="512" xmlns="http://www.w3.org/2000/svg"><path d="m488 72v256a16 16 0 0 1 -16 16h-352v-272z" fill="#5771e5"/><path d="m104 312h40v40h-40z" fill="#ffbfa1"/><path d="m280 399.99v48.01h-16l-44-44-20-20.01v104.02l-176-.01v-92.43994a59.56088 59.56088 0 0 1 59.56006-59.57006h119.17994a32.01081 32.01081 0 0 1 22.63 9.38013l26.63 26.62987z" fill="#ffceb6"/><path d="m252 372-32 32-20-20.01v104.02l-176-.01v-92.43994a59.56088 59.56088 0 0 1 59.56006-59.57006h119.17994a32.01081 32.01081 0 0 1 22.63 9.38013z" fill="#ed6445"/><path d="m120 72h368v-32a16 16 0 0 0 -16-16h-336a16 16 0 0 0 -16 16z" fill="#89a8f5"/><path d="m119.997 367.995-8-16 16.003-7.995 15.997 7.995-8 16z" fill="#f5a431"/><path d="m135.997 367.995 8 80h-32l8-80z" fill="#f7c04a"/><rect fill="#de402f" height="25.337" rx="8" transform="matrix(.789 -.614 .614 .789 -262.074 120.238)" width="16" x="36.185" y="429.37"/><rect fill="#de402f" height="34.048" rx="8" transform="matrix(.759 -.651 .651 .759 -245.414 146.347)" width="16" x="67.105" y="387.867"/><g fill="#3d44d1"><path d="m144 96h24v16h-24z"/><path d="m200 96h16v16h-16z"/><path d="m232 96h56v16h-56z"/><path d="m216 128h40v16h-40z"/><path d="m272 128h40v16h-40z"/><path d="m192 160h96v16h-96z"/><path d="m144 208h40v16h-40z"/><path d="m240 208h48v16h-48z"/><path d="m208 208h16v16h-16z"/><path d="m192 240h64v16h-64z"/><path d="m272 240h48v16h-48z"/><path d="m224 272h16v16h-16z"/><path d="m256 272h56v16h-56z"/><path d="m224 304h48v16h-48z"/></g><path d="m354.34326 221.65723-32-32a8.00034 8.00034 0 0 1 0-11.31446l32-32 11.31348 11.31446-26.34274 26.34277 26.34278 26.34277z" fill="#a2c1fa"/><path d="m429.65674 221.65723-11.31348-11.31446 26.34274-26.34277-26.34278-26.34277 11.31348-11.31446 32 32a8.00034 8.00034 0 0 1 0 11.31446z" fill="#a2c1fa"/><path d="m326.03 176h131.939v16h-131.939z" fill="#a2c1fa" transform="matrix(.243 -.97 .97 .243 118.415 519.665)"/><path d="m167.99508 375.99485a7.99737 7.99737 0 0 1 -11.31 0l-28.68508-28.68479-28.695 28.68648a7.99737 7.99737 0 0 1 -11.30919-.00086l-.00083-.00084a7.99736 7.99736 0 0 1 0-11.31l28.69496-28.69484h22.61011l28.695 28.69489a7.99738 7.99738 0 0 1 .00003 11.30996z" fill="#de402f"/><path d="m103.99652 280v40a24 24 0 0 0 24 24h.00005a24 24 0 0 0 24-24l.00343-40z" fill="#ffceb6"/><path d="m120 288 2.34315 2.34316a19.31368 19.31368 0 0 0 13.65685 5.65684 24 24 0 0 0 24-24v-8h-39.93451a22.28968 22.28968 0 0 0 -21.14585 15.24106 22.28969 22.28969 0 0 0 1.20936 17.01694l3.871 7.742z" fill="#b36f42"/><path d="m176 472h72v15.997h-72z" fill="#cad8ed"/><path d="m86.18379 417.81623 25.81273 30.17834h72l15.12688-10.08117a16 16 0 0 1 17.74623 0l23.13042 15.415v18.67047l-32.00348-.00434-8.97057 8.97056a24 24 0 0 1 -16.97056 7.02944h-86.40824a32 32 0 0 1 -25.25927-12.35391l-18.42551-23.603 34.22139-34.22139z" fill="#ffceb6"/><path d="m336 487.995 40-88h-120.003l-40 88z" fill="#e4e9f2"/><path d="m300 456a12 12 0 1 1 12-12 12.01343 12.01343 0 0 1 -12 12z" fill="#cad8ed"/><circle cx="144" cy="48" fill="#f28868" r="8"/><circle cx="168" cy="48" fill="#f7c04a" r="8"/><circle cx="192" cy="48" fill="#90d4b1" r="8"/></svg>