<svg id="Layer_1" enable-background="new 0 0 512 512" height="512" viewBox="0 0 512 512" width="512" xmlns="http://www.w3.org/2000/svg"><g><g><path d="m174.504 207c-3.859 0-7.716-1.479-10.648-4.435l-56.431-56.874c-5.835-5.881-5.798-15.379.083-21.214s15.379-5.796 21.213.083l56.431 56.874c5.835 5.881 5.798 15.379-.083 21.214-2.925 2.902-6.747 4.352-10.565 4.352z" fill="#00429d"/></g><g><path d="m96.75 450.25c-3.839 0-7.678-1.465-10.606-4.394-5.858-5.857-5.858-15.355 0-21.213l69.749-69.749c5.857-5.857 15.355-5.857 21.213 0s5.858 15.355 0 21.213l-69.749 69.749c-2.929 2.929-6.768 4.394-10.607 4.394z" fill="#00429d"/></g><g><path d="m416.033 450.432c-3.859 0-7.717-1.479-10.65-4.437l-73.021-73.612c-5.834-5.881-5.796-15.379.085-21.213 5.882-5.834 15.379-5.797 21.213.086l73.021 73.612c5.834 5.881 5.796 15.379-.085 21.213-2.925 2.901-6.744 4.351-10.563 4.351z" fill="#00347b"/></g><g><path d="m322 225c-3.839 0-7.678-1.465-10.606-4.394-5.858-5.857-5.858-15.355 0-21.213l69-69c5.857-5.857 15.355-5.857 21.213 0s5.858 15.355 0 21.213l-69 69c-2.929 2.929-6.768 4.394-10.607 4.394z" fill="#00347b"/></g><g><g><path d="m359.99 375.002h-207.997c-8.284 0-15-6.716-15-15 0-26.39-.066-141.606-.066-168.002 0-8.284 6.716-15 15-15h58.093c4.613 0 8.97 2.123 11.813 5.756l14.068 17.978h124.099c3.979 0 7.794 1.581 10.607 4.394s4.393 6.629 4.393 10.607l-.01 144.269c0 8.283-6.716 14.998-15 14.998z" fill="#fdbf00"/></g></g><g><g><path d="m118.073 150.126h-103.073c-8.284 0-15-6.716-15-15v-9.446c0-36.216 29.464-65.68 65.68-65.68h1.713c36.216 0 65.68 29.464 65.68 65.68v9.446c0 8.284-6.716 15-15 15z" fill="#7dd5f4"/></g></g><g><path d="m66.537 90c-24.813 0-45-20.187-45-45s20.187-45 45-45 45 20.187 45 45-20.187 45-45 45z" fill="#ffdecf"/></g><g><g><path d="m497 150.126h-103.073c-8.284 0-15-6.716-15-15v-9.446c0-36.216 29.464-65.68 65.68-65.68h1.713c36.216 0 65.68 29.464 65.68 65.68v9.446c0 8.284-6.716 15-15 15z" fill="#00cb75"/></g></g><g><path d="m445.464 90c-24.813 0-45-20.187-45-45s20.187-45 45-45 45 20.187 45 45-20.187 45-45 45z" fill="#ffcdbe"/></g><g><g><path d="m118.073 512h-103.073c-8.284 0-15-6.716-15-15v-9.446c0-36.216 29.464-65.68 65.68-65.68h1.713c36.216 0 65.68 29.464 65.68 65.68v9.446c0 8.284-6.716 15-15 15z" fill="#ff8856"/></g></g><g><path d="m66.537 451.874c-24.813 0-45-20.187-45-45s20.187-45 45-45 45 20.187 45 45-20.187 45-45 45z" fill="#ffdecf"/></g><g><g><path d="m497 512h-103.073c-8.284 0-15-6.716-15-15v-9.446c0-36.216 29.464-65.68 65.68-65.68h1.713c36.216 0 65.68 29.464 65.68 65.68v9.446c0 8.284-6.716 15-15 15z" fill="#ff435b"/></g></g><g><path d="m445.464 451.874c-24.813 0-45-20.187-45-45s20.187-45 45-45 45 20.187 45 45-20.187 45-45 45z" fill="#ffcdbe"/></g><path d="m370.607 205.127c-2.813-2.813-6.628-4.394-10.607-4.394h-104.036v174.269h104.026c8.284 0 15-6.715 15-14.999l.01-144.269c0-3.978-1.58-7.794-4.393-10.607z" fill="#ff8856"/></g></svg>