<svg id="Capa_1" enable-background="new 0 0 512 512" height="512" viewBox="0 0 512 512" width="512" xmlns="http://www.w3.org/2000/svg"><path d="m289.032 165.161-57.806 7.839v-115.194c0-4.561 3.697-8.258 8.258-8.258h41.29c4.561 0 8.258 3.697 8.258 8.258z" fill="#5d5360"/><path d="m425.583 199.244c-5.547-10.45-16.54-17.567-29.196-17.567h-280.774c-12.656 0-23.649 7.117-29.196 17.567l-3.836 56.756h346.839z" fill="#5d5360"/><path d="m99.097 198.194c-4.262 0-8.592.425-12.681 1.05-2.476 4.634-3.835 9.845-3.835 15.466v41.29h346.839v-41.29c0-5.62-1.361-10.832-3.837-15.466-4.089-.626-8.418-1.05-12.679-1.05z" fill="#4b3f4e"/><path d="m495.484 355.097h-455.984l-10.5-13.264-12.484 13.263c-9.121.001-16.516-7.394-16.516-16.515v-33.032c0-9.122 7.395-16.516 16.516-16.516l13.817 6.301 10.167-6.301h454.984c9.122 0 16.516 7.395 16.516 16.516v33.032c0 9.121-7.395 16.516-16.516 16.516z" fill="#5d5360"/><path d="m16.516 289.032h33.032v66.065h-33.032z" fill="#4b3f4e"/><path d="m412.903 214.71h-313.806c-19.731 0-37.442 8.65-49.548 22.365l-8.549 43.699v107.828c0 36.486 29.578 66.065 66.065 66.065h305.839l43.699-8.732c13.715-12.105 22.365-29.816 22.365-49.548v-115.613c0-36.486-29.578-66.064-66.065-66.064z" fill="#6969aa"/><g fill="#5550a0"><circle cx="90.839" cy="412.903" r="16.516"/><circle cx="90.839" cy="264.258" r="16.516"/><circle cx="421.161" cy="412.903" r="16.516"/><circle cx="421.161" cy="264.258" r="16.516"/></g><path d="m202.347 379.871c-10.863 0-20.677-6.802-24.484-16.927l-20.435-54.496c-1.597-4.27.565-9.028 4.831-10.633 4.266-1.577 9.032.56 10.637 4.835l20.435 54.492c1.395 3.714 5 6.214 8.968 6.214 4.016 0 7.621-2.5 9.016-6.218l20.435-54.488c1.605-4.274 6.363-6.415 10.637-4.835 4.266 1.605 6.427 6.363 4.831 10.633l-20.435 54.492c-3.807 10.129-13.622 16.931-24.436 16.931z" fill="#8787c8"/><path d="m338.573 379.871c-1.806 0-3.629-.593-5.153-1.81l-34.726-27.782c-3.702-2.96-5.145-7.964-3.573-12.452 1.573-4.488 5.823-7.504 10.573-7.504h16.371c4.556 0 8.258-3.706 8.258-8.258s-3.702-8.258-8.258-8.258h-41.29v57.806c0 4.56-3.694 8.258-8.258 8.258-4.565 0-8.258-3.698-8.258-8.258v-66.065c0-4.56 3.694-8.258 8.258-8.258h49.548c13.661 0 24.774 11.113 24.774 24.774s-11.113 24.774-24.774 24.774h-1.234l22.911 18.327c3.556 2.847 4.137 8.044 1.29 11.605-1.637 2.04-4.032 3.101-6.459 3.101z" fill="#8787c8"/><path d="m99.097 445.935c-27.365 0-49.548-22.183-49.548-49.548v-159.312c-10.249 11.639-16.516 26.972-16.516 43.7v115.613c0 36.486 29.578 66.065 66.065 66.065h313.806c16.728 0 32.06-6.267 43.699-16.516h-357.506z" fill="#5550a0"/><path d="m239.484 140.387v-90.839h-8.258c-4.561 0-8.258 3.697-8.258 8.258v123.871h66.065v-16.516h-24.774c-13.683 0-24.775-11.091-24.775-24.774z" fill="#4b3f4e"/></svg>