<?xml version="1.0" encoding="iso-8859-1"?>
<!-- Generator: Adobe Illustrator 19.0.0, SVG Export Plug-In . SVG Version: 6.00 Build 0)  -->
<svg version="1.1" id="Capa_1" xmlns="http://www.w3.org/2000/svg" xmlns:xlink="http://www.w3.org/1999/xlink" x="0px" y="0px"
	 viewBox="0 0 512.002 512.002" style="enable-background:new 0 0 512.002 512.002;" xml:space="preserve">
<path style="fill:#DEECF1;" d="M503.708,1.585C498.626-0.958,492.545-0.409,488,3.001l-183.801,137.85L120.4,3.001
	c-4.546-3.408-10.626-3.957-15.708-1.416S96.4,9.32,96.4,15.001v289.201c0,8.285,6.716,15,15,15H497c8.284,0,15-6.715,15-15V15.001
	C512,9.32,508.79,4.126,503.708,1.585z"/>
<path style="fill:#A2D8F4;" d="M503.708,1.585C498.626-0.958,492.545-0.409,488,3.001l-183.8,137.85v178.352H497
	c8.284,0,15-6.715,15-15V15.001C512,9.32,508.79,4.126,503.708,1.585z"/>
<path style="fill:#7CC8F0;" d="M511.23,10.259C509.189,4.134,503.456,0.001,497,0.001H111.4c-6.456,0-12.188,4.133-14.23,10.258
	s0.065,12.869,5.23,16.742l192.799,144.6c2.667,2,5.833,3,9,3s6.333-1,9-3L506,27.001C511.165,23.128,513.273,16.384,511.23,10.259z
	"/>
<path style="fill:#FF5E95;" d="M159.601,192.802C71.597,192.802,0,264.398,0,352.402s71.597,159.6,159.601,159.6
	c88.003,0,159.599-71.596,159.599-159.6S247.604,192.802,159.601,192.802z"/>
<path style="fill:#FF193D;" d="M159.601,192.802v319.199c88.003,0,159.6-71.596,159.6-159.6S247.604,192.802,159.601,192.802z"/>
<path style="fill:#FFFFFF;" d="M180.814,352.402l23.477-23.475c5.858-5.857,5.858-15.355,0.001-21.213
	c-5.858-5.859-15.355-5.859-21.214,0l-23.476,23.475l-23.478-23.477c-5.858-5.859-15.355-5.859-21.213,0
	c-5.857,5.858-5.857,15.355,0,21.213l23.477,23.477l-23.477,23.477c-5.857,5.857-5.857,15.353,0,21.213
	c2.929,2.93,6.768,4.393,10.606,4.393c3.839,0,7.678-1.465,10.606-4.393l23.477-23.477l23.475,23.477
	c2.93,2.93,6.768,4.393,10.607,4.393c3.838,0,7.678-1.465,10.605-4.393c5.858-5.857,5.858-15.355,0.001-21.213L180.814,352.402z"/>
<path style="fill:#4BB9EC;" d="M511.23,10.259C509.189,4.134,503.456,0.001,497,0.001H304.2v174.6c3.166,0,6.332-1,8.999-3
	L506,27.001C511.165,23.128,513.273,16.384,511.23,10.259z"/>
<path style="fill:#DEECF1;" d="M180.814,352.402l23.477-23.475c5.858-5.857,5.858-15.355,0.001-21.213
	c-5.858-5.859-15.355-5.859-21.214,0l-23.476,23.475l-0.002-0.002v42.428h0.001l23.475,23.477c2.93,2.93,6.768,4.393,10.607,4.393
	c3.838,0,7.678-1.465,10.605-4.393c5.858-5.857,5.858-15.355,0.001-21.213L180.814,352.402z"/>
<g>
</g>
<g>
</g>
<g>
</g>
<g>
</g>
<g>
</g>
<g>
</g>
<g>
</g>
<g>
</g>
<g>
</g>
<g>
</g>
<g>
</g>
<g>
</g>
<g>
</g>
<g>
</g>
<g>
</g>
</svg>
