<?xml version="1.0" encoding="iso-8859-1"?>
<!-- Generator: Adobe Illustrator 16.0.0, SVG Export Plug-In . SVG Version: 6.00 Build 0)  -->
<!DOCTYPE svg PUBLIC "-//W3C//DTD SVG 1.1//EN" "http://www.w3.org/Graphics/SVG/1.1/DTD/svg11.dtd">
<svg xmlns="http://www.w3.org/2000/svg" xmlns:xlink="http://www.w3.org/1999/xlink" version="1.1" id="Layer_1" x="0px" y="0px" width="512" height="512" viewBox="0 0 350 350" style="enable-background:new 0 0 350 350;" xml:space="preserve">
<g>
	<path style="fill:#FFB65B;" d="M325,9.999H175H25c-8.284,0-15,6.716-15,15v35.258v70.617v28.257v81.945v83.925   c0,8.285,6.716,15,15,15h60h60h30h150c8.284,0,15-6.715,15-15v-59.275V159.131v-28.257V47.936V24.999   C340,16.715,333.284,9.999,325,9.999z"/>
	<path style="fill:#FFA828;" d="M325,9.999H175v37.937v82.065v30v105.725v74.275h150c8.284,0,15-6.715,15-15v-59.275V159.131   v-28.257V47.936V24.999C340,16.715,333.284,9.999,325,9.999z"/>
	<g>
		<path style="fill:#9B4C00;" d="M84.999,100.002c3.95,0,7.81-1.6,10.61-4.39c2.79-2.801,4.39-6.661,4.39-10.61    s-1.6-7.82-4.39-10.61c-2.801-2.79-6.66-4.39-10.61-4.39c-3.949,0-7.819,1.6-10.608,4.39c-2.791,2.79-4.392,6.66-4.392,10.61    s1.601,7.81,4.392,10.61C77.18,98.403,81.05,100.002,84.999,100.002z"/>
		<path style="fill:#9B4C00;" d="M144.998,100.002c3.951,0,7.812-1.6,10.611-4.39c2.79-2.801,4.389-6.67,4.389-10.61    c0-3.95-1.599-7.81-4.389-10.61c-2.8-2.79-6.66-4.39-10.611-4.39c-3.948,0-7.809,1.6-10.607,4.39    c-2.791,2.79-4.393,6.66-4.393,10.61s1.602,7.81,4.393,10.61C137.189,98.403,141.05,100.002,144.998,100.002z"/>
		<path style="fill:#671F03;" d="M204.998,100.002c3.951,0,7.812-1.6,10.611-4.39c2.79-2.801,4.389-6.661,4.389-10.61    s-1.599-7.82-4.389-10.61c-2.79-2.79-6.66-4.39-10.611-4.39c-3.948,0-7.818,1.6-10.607,4.39c-2.791,2.79-4.393,6.66-4.393,10.61    s1.602,7.81,4.393,10.61C197.18,98.403,201.05,100.002,204.998,100.002z"/>
		<path style="fill:#671F03;" d="M264.998,100.002c3.951,0,7.821-1.6,10.611-4.39c2.79-2.801,4.389-6.661,4.389-10.61    s-1.599-7.81-4.389-10.61c-2.8-2.79-6.66-4.39-10.611-4.39c-3.948,0-7.809,1.6-10.607,4.39c-2.791,2.8-4.393,6.66-4.393,10.61    s1.602,7.81,4.393,10.61C257.189,98.403,261.05,100.002,264.998,100.002z"/>
	</g>
	<path style="fill:#9B4C00;" d="M340,130.874c-1.566-0.555-3.244-0.873-5-0.873H175H15c-1.756,0-3.434,0.318-5,0.873   c-5.822,2.061-10,7.6-10,14.127c0,6.529,4.178,12.068,10,14.13c1.566,0.553,3.244,0.87,5,0.87h160h160c1.756,0,3.434-0.317,5-0.87   c5.822-2.062,10-7.601,10-14.13C350,138.474,345.822,132.935,340,130.874z"/>
	<path style="fill:#671F03;" d="M340,130.874c-1.566-0.555-3.244-0.873-5-0.873H175v30h160c1.756,0,3.434-0.317,5-0.87   c5.822-2.062,10-7.601,10-14.13C350,138.474,345.822,132.935,340,130.874z"/>
	<path style="fill:#671F03;" d="M215,280.002h60c8.284,0,15-6.716,15-15v-60c0-8.285-6.716-15-15-15h-60c-8.285,0-15,6.715-15,15v60   C200,273.286,206.715,280.002,215,280.002z"/>
	<path style="fill:#9B4C00;" d="M75,340.001h60c8.284,0,15-6.715,15-15V205.002c0-8.285-6.716-15-15-15H75c-8.284,0-15,6.715-15,15   v119.999C60,333.286,66.716,340.001,75,340.001z"/>
</g>















</svg>
