<svg id="Capa_1" enable-background="new 0 0 512 512" height="512" viewBox="0 0 512 512" width="512" xmlns="http://www.w3.org/2000/svg"><g><g><g><g><g><g><g><g><g><circle cx="256" cy="256" fill="#fe6a16" r="256"/></g></g></g></g></g></g></g></g><path d="m512 256c0-11.822-.802-23.456-2.353-34.852l-109.397-109.398-144.25 36.069-114.94 133.366-35.822 111.789 5.924 6.682 110.867 110.109c11.115 1.474 22.454 2.235 33.971 2.235 141.385 0 256-114.615 256-256z" fill="#ea4006"/><g><g><path d="m185.736 271.862-38.631 38.631c-14.998 14.998-14.998 39.403 0 54.402 14.999 14.999 39.404 14.999 54.402 0l38.631-38.631c-12.219-4.239-23.688-11.23-33.43-20.972-9.742-9.743-16.733-21.211-20.972-33.43z" fill="none"/></g><g><path d="m326.264 240.138 38.631-38.631c14.998-14.998 14.998-39.403 0-54.402-14.999-14.999-39.404-14.999-54.402 0l-38.631 38.631c12.219 4.239 23.688 11.23 33.43 20.972 9.742 9.743 16.733 21.211 20.972 33.43z" fill="none"/></g><g><ellipse cx="256" cy="256" fill="none" rx="19.709" ry="33.576" transform="matrix(.707 -.707 .707 .707 -106.039 256)"/></g><g><path d="m271.862 185.736-29.798 29.798c-4.813 4.813-8.081 10.595-9.805 16.724 12.97-3.648 27.493-.38 37.678 9.806 10.186 10.186 13.454 24.709 9.806 37.678-1.724 6.129-4.992 11.91-9.805 16.724l-29.798 29.798-38.631 38.631c-14.998 14.998-39.403 14.998-54.402 0-14.999-14.999-14.999-39.404 0-54.402l38.631-38.631c-8.79-25.336-5.749-53.9 9.123-77.003-5.203 3.35-10.13 7.299-14.68 11.849l-68.429 68.429c-34.494 34.494-34.493 90.619 0 125.113s90.619 34.494 125.113 0l68.429-68.429c4.55-4.55 8.5-9.476 11.849-14.68 14.872-23.102 17.912-51.666 9.123-77.003-4.239-12.219-11.23-23.688-20.972-33.43-9.745-9.742-21.213-16.733-33.432-20.972z" fill="#ffce00"/></g><g><path d="m269.936 242.064c10.186 10.186 13.454 24.709 9.806 37.679-1.724 6.129-4.992 11.91-9.805 16.723l-29.798 29.798-38.631 38.631c-14.998 14.998-39.403 14.998-54.402 0-.24-.24-.49-.497-.723-.742l-35.319 35.403c.237.243.446.454.687.694 34.494 34.494 90.619 34.494 125.113 0l68.429-68.429c4.55-4.55 8.5-9.477 11.849-14.68 14.872-23.102 17.912-51.667 9.123-77.003-4.239-12.219-11.23-23.688-20.972-33.43z" fill="#fdba12"/></g><g><path d="m275.137 111.75-68.429 68.429c-4.55 4.55-8.5 9.476-11.849 14.68-14.872 23.102-17.912 51.666-9.123 77.003 4.239 12.219 11.23 23.688 20.972 33.43 9.743 9.743 21.211 16.733 33.43 20.972l29.798-29.798c4.813-4.813 8.081-10.595 9.805-16.724-12.97 3.648-27.493.38-37.678-9.806-10.186-10.186-13.454-24.709-9.806-37.678 1.724-6.129 4.992-11.911 9.805-16.724l29.798-29.798 38.631-38.631c14.998-14.998 39.403-14.998 54.402 0 14.999 14.999 14.999 39.404 0 54.402l-38.631 38.631c8.79 25.336 5.749 53.901-9.123 77.003 5.203-3.35 10.13-7.299 14.68-11.849l68.429-68.429c34.494-34.494 34.493-90.619 0-125.113s-90.617-34.494-125.111 0z" fill="#fff"/></g><g fill="#e9edf5"><path d="m206.708 305.292c9.743 9.742 21.211 16.733 33.43 20.972l29.798-29.798c4.813-4.813 8.081-10.595 9.805-16.723-12.97 3.648-27.493.38-37.678-9.806z"/><path d="m364.895 147.105c14.999 14.999 14.999 39.404 0 54.402l-38.631 38.631c8.79 25.336 5.749 53.901-9.123 77.003 5.203-3.35 10.13-7.299 14.68-11.849l68.429-68.429c34.494-34.493 34.494-90.619 0-125.113z"/></g></g></g></svg>