<svg enable-background="new 0 0 58 56" height="512" viewBox="0 0 58 56" width="512" xmlns="http://www.w3.org/2000/svg"><path d="m34 44v-1h-10v1c0 4.422-1.578 8-6 8v2h22v-2c-4.422 0-6-3.578-6-8z" fill="#e7eced"/><path d="m50 0h-42-4.999c-1.657 0-3.001 1.344-3.001 3.001v33.999h8 15 12 15 8v-33.999c0-1.657-1.344-3.001-3.001-3.001z" fill="#e7eced"/><path d="m4 4h50v32h-50z" fill="#ebba16"/><path d="m54.999 44h-51.998c-1.657 0-3.001-1.344-3.001-3.001v-4.999h58v4.999c0 1.657-1.344 3.001-3.001 3.001z" fill="#afb6bb"/><path d="m32 41h-6c-.552 0-1-.448-1-1s.448-1 1-1h6c.552 0 1 .448 1 1s-.448 1-1 1z" fill="#fff"/><path d="m42 56h-26c-1.105 0-2-.895-2-2 0-1.105.895-2 2-2h26c1.105 0 2 .895 2 2 0 1.105-.895 2-2 2z" fill="#afb6bb"/><path d="m29 24-12-5.647v7.647l12 6 12-6v-7.647z" fill="#1f436d"/><g fill="#e7eced"><path d="m46 26c-.552 0-1-.448-1-1v-9c0-.552.448-1 1-1s1 .448 1 1v9c0 .552-.448 1-1 1z"/><path d="m43.999 29c-.191 0-.383-.054-.554-.168-.459-.306-.584-.927-.277-1.387l2-3c.306-.458.927-.584 1.387-.277.459.306.584.927.277 1.387l-2 3c-.193.289-.51.445-.833.445z"/><path d="m48.001 29c-.323 0-.64-.156-.833-.445l-2-3c-.306-.459-.182-1.081.277-1.387.459-.308 1.081-.182 1.387.277l2 3c.306.459.182 1.081-.277 1.387-.171.114-.364.168-.554.168z"/></g><path d="m29 28c-.552 0-1-.448-1-1v-5c0-.552.448-1 1-1s1 .448 1 1v5c0 .552-.448 1-1 1z" fill="#15324f"/><path d="m29 8-17 8 17 8 17-8z" fill="#366db6"/><path d="m46 17h-17c-.552 0-1-.448-1-1s.448-1 1-1h17c.552 0 1 .448 1 1s-.448 1-1 1z" fill="#e7eced"/><path d="m29 19c-.552 0-1-.448-1-1v-4c0-.552.448-1 1-1s1 .448 1 1v4c0 .552-.448 1-1 1z" fill="#e7eced"/></svg>