<?xml version="1.0" encoding="iso-8859-1"?>
<!-- Generator: Adobe Illustrator 19.0.0, SVG Export Plug-In . SVG Version: 6.00 Build 0)  -->
<svg version="1.1" id="Layer_1" xmlns="http://www.w3.org/2000/svg" xmlns:xlink="http://www.w3.org/1999/xlink" x="0px" y="0px"
	 viewBox="0 0 512 512" style="enable-background:new 0 0 512 512;" xml:space="preserve">
<path style="fill:#A4E276;" d="M488.727,0H256H23.273C10.42,0,0,10.418,0,23.273v465.455C0,501.58,10.42,512,23.273,512H256h232.727
	C501.58,512,512,501.58,512,488.727V23.273C512,10.418,501.58,0,488.727,0z"/>
<path style="fill:#64C37D;" d="M232.727,395.636V279.273H116.364c-12.853,0-23.273-10.42-23.273-23.273
	c0-12.854,10.42-23.273,23.273-23.273h116.364V116.364c0-12.854,10.42-23.273,23.273-23.273V0H23.273C10.42,0,0,10.418,0,23.273
	v465.455C0,501.58,10.42,512,23.273,512H256v-93.091C243.147,418.909,232.727,408.489,232.727,395.636z"/>
<path style="fill:#368B4C;" d="M395.636,232.727H279.273V116.364c0-12.854-10.42-23.273-23.273-23.273
	c-12.853,0-23.273,10.418-23.273,23.273v116.364H116.364c-12.853,0-23.273,10.418-23.273,23.273
	c0,12.853,10.42,23.273,23.273,23.273h116.364v116.364c0,12.853,10.42,23.273,23.273,23.273c12.853,0,23.273-10.42,23.273-23.273
	V279.273h116.364c12.853,0,23.273-10.42,23.273-23.273C418.909,243.146,408.489,232.727,395.636,232.727z"/>
<g>
</g>
<g>
</g>
<g>
</g>
<g>
</g>
<g>
</g>
<g>
</g>
<g>
</g>
<g>
</g>
<g>
</g>
<g>
</g>
<g>
</g>
<g>
</g>
<g>
</g>
<g>
</g>
<g>
</g>
</svg>
