<?xml version="1.0" encoding="iso-8859-1"?>
<!-- Generator: Adobe Illustrator 19.0.0, SVG Export Plug-In . SVG Version: 6.00 Build 0)  -->
<svg version="1.1" id="Layer_1" xmlns="http://www.w3.org/2000/svg" xmlns:xlink="http://www.w3.org/1999/xlink" x="0px" y="0px"
	 viewBox="0 0 512.001 512.001" style="enable-background:new 0 0 512.001 512.001;" xml:space="preserve">
<path style="fill:#50B9FF;" d="M256,256.001v128c0,70.689-57.311,128-128,128c-35.35,0-67.339-14.325-90.513-37.487
	C14.325,451.34,0,419.351,0,384.001s14.325-67.339,37.487-90.513C60.661,270.325,92.65,256.001,128,256.001H256z"/>
<path style="fill:#48A7E6;" d="M256,256.001v128c0,70.689-57.311,128-128,128c-35.35,0-67.339-14.325-90.513-37.487L256,256.001z"/>
<path style="fill:#FFDE33;" d="M384.001,256.001H256v-128c0-70.693,57.308-128,128-128l0,0c70.693,0,128,57.307,128,128l0,0
	C512,198.693,454.693,256.001,384.001,256.001z"/>
<path style="fill:#FFBC33;" d="M384.001,256.001c70.693,0,128-57.307,128-128c0-35.346-14.327-67.346-37.491-90.509L256,256.001
	H384.001z"/>
<path style="fill:#EC7838;" d="M384.001,512.001L384.001,512.001c-70.693,0-128-57.307-128-128v-128h128
	c70.693,0,128,57.307,128,128l0,0C512,454.693,454.693,512.001,384.001,512.001z"/>
<path style="fill:#DB632C;" d="M384.001,512.001c35.346,0,67.345-14.327,90.508-37.491L256,256.001v128
	C256.001,454.693,313.308,512.001,384.001,512.001z"/>
<path style="fill:#7BCC29;" d="M256,256.001H128c-70.692,0-128-57.307-128-128l0,0c0-70.693,57.308-128,128-128l0,0
	c70.693,0,128,57.307,128,128V256.001z"/>
<path style="fill:#6EB825;" d="M128.001,256.001h128L37.491,37.491C14.327,60.655,0.001,92.655,0,127.999
	C0,198.693,57.308,256.001,128.001,256.001z"/>
<path style="fill:#E6EEFF;" d="M389.565,456.348c-36.826,0-66.783-29.956-66.783-66.783s29.956-66.783,66.783-66.783
	s66.783,29.956,66.783,66.783S426.391,456.348,389.565,456.348z"/>
<path style="fill:#DAE2F2;" d="M342.364,342.365c-12.092,12.092-19.582,28.788-19.581,47.201c0,36.826,29.956,66.783,66.783,66.783
	c18.413,0,35.109-7.489,47.201-19.582L342.364,342.365z"/>
<path style="fill:#E6EEFF;" d="M122.435,456.348c-36.826,0-66.783-29.956-66.783-66.783s29.956-66.783,66.783-66.783
	s66.783,29.956,66.783,66.783S159.261,456.348,122.435,456.348z"/>
<path style="fill:#DAE2F2;" d="M122.436,456.348c36.826,0,66.783-29.956,66.783-66.783c0-18.413-7.49-35.11-19.582-47.201
	l-94.402,94.402C87.326,448.859,104.023,456.348,122.436,456.348z"/>
<path style="fill:#E6EEFF;" d="M122.435,189.218c-36.826,0-66.783-29.956-66.783-66.783s29.956-66.783,66.783-66.783
	s66.783,29.956,66.783,66.783S159.261,189.218,122.435,189.218z"/>
<path style="fill:#DAE2F2;" d="M75.235,75.235c-12.092,12.093-19.582,28.788-19.582,47.201c0,36.826,29.956,66.783,66.783,66.783
	c18.413,0,35.109-7.489,47.201-19.582L75.235,75.235z"/>
<path style="fill:#E6EEFF;" d="M389.565,189.218c-36.826,0-66.783-29.956-66.783-66.783s29.956-66.783,66.783-66.783
	s66.783,29.956,66.783,66.783S426.391,189.218,389.565,189.218z"/>
<path style="fill:#DAE2F2;" d="M389.566,189.218c36.825,0,66.783-29.956,66.783-66.783c0-18.413-7.49-35.11-19.582-47.201
	l-94.402,94.402C354.456,181.728,371.153,189.218,389.566,189.218z"/>
<g>
</g>
<g>
</g>
<g>
</g>
<g>
</g>
<g>
</g>
<g>
</g>
<g>
</g>
<g>
</g>
<g>
</g>
<g>
</g>
<g>
</g>
<g>
</g>
<g>
</g>
<g>
</g>
<g>
</g>
</svg>
