<svg id="Capa_1" enable-background="new 0 0 512 512" height="512" viewBox="0 0 512 512" width="512" xmlns="http://www.w3.org/2000/svg"><g><g><path d="m358.599 472.599h-205.198l60-90h85.198z" fill="#d8e0f0"/></g><path d="m298.599 382.599 60 90h-102.599v-90z" fill="#b8c4d9"/><path d="m0 76h512v330h-512z" fill="#665252"/><path d="m256 76h256v330h-256z" fill="#4d3636"/><path d="m30 106h452v270h-452z" fill="#ffdf40"/><path d="m256 106h226v270h-226z" fill="#ffbe40"/><g><path d="m121 466h270v30h-270z" fill="#f3f5f9"/></g><path d="m452 76v270h-392v-270l35.7-30h315.099z" fill="#f3f5f9"/><path d="m452 76v270h-196v-300h154.799z" fill="#d8e0f0"/><path d="m256 466h135v30h-135z" fill="#d8e0f0"/><g><path d="m183.52 264.32-35.538-53.32 35.538-53.32 24.96 16.64-24.462 36.68 24.462 36.68z" fill="#ff5959"/></g><g><path d="m328.48 264.32-24.96-16.64 24.462-36.68-24.462-36.68 24.96-16.64 35.538 53.32z" fill="#e63a57"/></g><path d="m256.762 161.254-.762 2.285-29.238 87.715 28.476 9.492.762-2.285 29.238-87.715z" fill="#ff5959"/><path d="m256.762 161.254-.762 2.285v94.922l29.238-87.715z" fill="#e63a57"/><path d="m256 16h-75l-30 35.099 30 24.901h75 196v-60z" fill="#665252"/><path d="m256 16h196v60h-196z" fill="#4d3636"/><path d="m60 16h121v60h-121z" fill="#ff5959"/></g></svg>