<?xml version="1.0" encoding="iso-8859-1"?>
<!-- Generator: Adobe Illustrator 19.0.0, SVG Export Plug-In . SVG Version: 6.00 Build 0)  -->
<svg version="1.1" id="Capa_1" xmlns="http://www.w3.org/2000/svg" xmlns:xlink="http://www.w3.org/1999/xlink" x="0px" y="0px"
	 viewBox="0 0 512 512" style="enable-background:new 0 0 512 512;" xml:space="preserve">
<path style="fill:#FFE470;" d="M447.5,512H7.5l0,0c14.888,0,27-12.112,27-27V42h470v413C504.5,486.43,478.93,512,447.5,512z"/>
<path style="fill:#FFB64C;" d="M504.5,455V42h-234v443c0,14.888-12.112,27-27,27l0,0h204C478.93,512,504.5,486.43,504.5,455z"/>
<path style="fill:#57555C;" d="M270.5,170c-46.869,0-85-38.131-85-85s38.131-85,85-85s85,38.131,85,85S317.369,170,270.5,170z"/>
<path style="fill:#3A3A41;" d="M355.5,85c0-46.869-38.131-85-85-85v170C317.369,170,355.5,131.869,355.5,85z"/>
<path style="fill:#D97F4A;" d="M262.364,416.269c-9.417,0-18.1-5.292-22.369-13.959c-4.85-9.846-2.774-21.552,5.164-29.13
	l68.942-65.809l-117.815,27.946c-11.459,2.719-23.075-2.776-28.239-13.365c-5.165-10.588-2.347-23.122,6.853-30.48l90.23-72.185
	l18.74,23.426l-72.845,58.276l114.105-27.066c11.132-2.643,22.279,2.34,27.739,12.393c5.46,10.054,3.568,22.116-4.707,30.016
	l-70.78,67.563l101.829-15.718l4.576,29.648L266.235,415.97C264.938,416.17,263.644,416.269,262.364,416.269z"/>
<g>
	<path style="fill:#AD5E2E;" d="M277.383,383.894l70.78-67.563c8.275-7.899,10.167-19.962,4.707-30.016
		c-5.46-10.053-16.607-15.035-27.739-12.393l-54.631,12.96v30.832l43.602-10.343l-43.602,41.62v66.321l113.288-17.487l-4.576-29.648
		L277.383,383.894z"/>
	<polygon style="fill:#AD5E2E;" points="270.5,253.409 283.87,242.713 270.5,226 	"/>
</g>
<rect x="255.5" y="45" style="fill:#C5C3CB;" width="30" height="40"/>
<rect x="270.5" y="45" style="fill:#ABAAAF;" width="15" height="40"/>
<g>
</g>
<g>
</g>
<g>
</g>
<g>
</g>
<g>
</g>
<g>
</g>
<g>
</g>
<g>
</g>
<g>
</g>
<g>
</g>
<g>
</g>
<g>
</g>
<g>
</g>
<g>
</g>
<g>
</g>
</svg>
