<svg height="512pt" viewBox="0 0 512 512" width="512pt" xmlns="http://www.w3.org/2000/svg"><path d="m274.234375 357.917969-10.507813-96.359375c-.765624-6.996094-6.289062-12.519532-13.285156-13.285156l-96.359375-10.503907c-6.667969-.730469-13.011719 3.0625-15.527343 9.28125l-54.195313 133.820313c-.117187.292968-.226563.585937-.324219.886718-4.777344 14.332032-3.714844 27.351563 2.992188 36.660157 5.820312 8.074219 15.171875 12.523437 26.332031 12.523437h.003906c5.289063 0 10.96875-1 16.882813-2.972656.296875-.097656.59375-.207031.886718-.324219l133.820313-54.195312c6.21875-2.519531 10.007813-8.859375 9.28125-15.53125zm0 0" fill="#00d8e0"/><path d="m263.726562 261.558594c-.382812-3.496094-1.953124-6.625-4.304687-8.976563l-169.375 169.375c5.804687 5.816407 13.910156 8.980469 23.3125 8.984375h.003906c5.285157 0 10.96875-1 16.882813-2.972656.296875-.101562.59375-.210938.886718-.328125l133.820313-54.191406c6.21875-2.519531 10.011719-8.859375 9.28125-15.53125zm0 0" fill="#00acb3"/><path d="m506.035156 12.519531c-5.816406-8.074219-15.167968-12.519531-26.332031-12.519531-5.289063 0-10.972656 1-16.886719 2.972656l-435.101562 145.03125c-23.019532 7.675782-27.214844 21.074219-27.667969 28.375-.453125 7.304688 2.058594 21.117188 23.949219 31.570313l155.457031 74.242187c18.152344 8.671875 41.683594 32.203125 50.351563 50.355469l74.242187 155.453125c9.972656 20.882812 23.117187 24 30.066406 24 6.207031 0 21.542969-2.699219 29.882813-27.714844l145.035156-435.105468c4.777344-14.332032 3.714844-27.351563-2.996094-36.660157zm0 0" fill="#fef4f5"/><path d="m503.015625 8.984375-294.828125 294.832031c9.234375 9.234375 17.285156 19.652344 21.621094 28.730469l74.238281 155.453125c9.972656 20.882812 23.121094 24 30.066406 24 6.207031 0 21.546875-2.699219 29.882813-27.714844l145.035156-435.105468c4.777344-14.332032 3.714844-27.351563-2.996094-36.660157-.917968-1.273437-1.933594-2.445312-3.019531-3.535156zm0 0" fill="#d5eded"/><path d="m218.8125 308.1875c-3.835938 0-7.675781-1.464844-10.605469-4.394531-5.855469-5.859375-5.855469-15.355469 0-21.214844l273.601563-273.601563c5.859375-5.859374 15.355468-5.859374 21.214844 0 5.855468 5.859376 5.855468 15.355469 0 21.210938l-273.605469 273.605469c-2.925781 2.929687-6.765625 4.394531-10.605469 4.394531zm0 0" fill="#a8ebfa"/><path d="m208.207031 303.792969c2.929688 2.929687 6.769531 4.394531 10.605469 4.394531 3.839844 0 7.679688-1.464844 10.605469-4.394531l273.605469-273.605469c5.855468-5.855469 5.855468-15.351562 0-21.210938zm0 0" fill="#76e2f8"/></svg>