<svg id="Capa_1" enable-background="new 0 0 497 497" height="512" viewBox="0 0 497 497" width="512" xmlns="http://www.w3.org/2000/svg"><g><path d="m497 201.69v242.58c0 5.06-1.33 9.81-3.68 13.91-2.5 4.42-6.18 8.1-10.61 10.6-4.1 2.33-8.83 3.66-13.88 3.66h-440.66c-5.05 0-9.78-1.33-13.88-3.66-4.43-2.5-8.11-6.18-10.61-10.6-2.35-4.1-3.68-8.85-3.68-13.91v-242.58c0-7.89 3.24-15.02 8.47-20.13h480.06c5.23 5.11 8.47 12.24 8.47 20.13z" fill="#0593fc"/><g><path d="m493.32 458.18c-2.5 4.42-6.18 8.1-10.61 10.6l-144.4-144.2c-2.93-2.93-2.93-7.67-.01-10.61 2.93-2.93 7.68-2.93 10.61 0z" fill="#0181fa"/></g><g><path d="m158.69 324.58-144.4 144.2c-4.43-2.5-8.11-6.18-10.61-10.6l144.41-144.21c2.93-2.93 7.68-2.93 10.61 0 2.92 2.94 2.92 7.68-.01 10.61z" fill="#0181fa"/></g><path d="m488.53 181.564h-22.593c5.23 5.11 8.47 12.24 8.47 20.13v242.58c0 15.56-12.61 28.17-28.17 28.17h22.593c15.56 0 28.17-12.61 28.17-28.17v-242.58c0-7.89-3.24-15.02-8.47-20.13z" fill="#0181fa"/><path d="m488.53 181.564-201.79 191.74c-21.43 20.36-55.05 20.36-76.48 0l-201.79-191.74c5.08-4.98 12.03-8.04 19.7-8.04h440.66c7.67 0 14.62 3.06 19.7 8.04z" fill="#eaf6ff"/><path d="m345.24 173.524c-12.18 54.69-60.98 95.57-119.33 95.57-58.36 0-107.16-40.88-119.34-95.57z" fill="#c8effe"/><path d="m468.83 173.524h-22.593c3.441 0 6.736.616 9.784 1.744 5.492 2.034 6.854 9.205 2.608 13.24l-194.482 184.796c-7.766 7.378-17.136 12.068-26.943 14.099 17.256 3.573 35.873-1.118 49.537-14.099l201.79-191.74c-5.081-4.98-12.031-8.04-19.701-8.04z" fill="#c8effe"/><path d="m257.267 429.501h-17.533c-9.824 0-17.787-7.964-17.787-17.787v-57.364c0-9.824 7.964-17.787 17.787-17.787h17.533c9.824 0 17.787 7.964 17.787 17.787v57.364c0 9.823-7.964 17.787-17.787 17.787z" fill="#99e6fc"/><path d="m275.05 354.354v57.36c0 9.82-7.96 17.79-17.78 17.79h-12.75c4.78-3.17 7.94-8.61 7.94-14.79v-62.36c0-6.89-3.91-12.85-9.64-15.79h14.45c9.82 0 17.78 7.96 17.78 17.79z" fill="#62dbfb"/><circle cx="248.5" cy="146.824" fill="#4fc123" r="122.268"/><path d="m248.5 24.556c-3.81 0-7.576.183-11.297.524 62.23 5.702 110.971 58.027 110.971 121.744s-48.742 116.042-110.971 121.744c3.721.341 7.487.524 11.297.524 67.527 0 122.268-54.741 122.268-122.268s-54.741-122.268-122.268-122.268z" fill="#47a920"/><path d="m230.83 143.883-17.488-17.488c-4.461-4.461-11.695-4.461-16.156 0l-15.161 15.161c-4.461 4.461-4.461 11.695 0 16.156l38.843 38.843c8.05 8.05 21.102 8.05 29.152 0l75.955-75.955c4.461-4.461 4.461-11.695 0-16.156l-14.042-14.042c-4.461-4.461-11.695-4.461-16.156 0l-53.482 53.482c-3.166 3.165-8.299 3.165-11.465-.001z" fill="#d1f19e"/><path d="m325.975 104.444-14.042-14.042c-4.461-4.461-11.695-4.461-16.156 0l-4.668 4.668c2.163.417 4.23 1.463 5.905 3.138l6.369 6.236c4.461 4.461 4.461 11.695 0 16.156l-66.178 64.006c-6.851 6.851-17.315 7.849-25.245 3.04l8.909 8.909c8.05 8.05 21.102 8.05 29.152 0l75.955-75.955c4.461-4.462 4.461-11.695-.001-16.156z" fill="#bbec6c"/></g></svg>